<svg id="Layer_1" data-name="Layer 1" xmlns="http://www.w3.org/2000/svg" viewBox="0 0 512 512"><defs><style>.cls-1{fill:#ef4848;}.cls-2{fill:#e8a52d;}.cls-3{fill:#d9e4e8;}.cls-4{fill:#9bbdc6;}.cls-5{fill:#141f38;}</style></defs><title>document-and-pen-2-filled</title><path class="cls-1" d="M413.6,166.4h43.2a4,4,0,0,1,4,4v60a0,0,0,0,1,0,0H409.6a0,0,0,0,1,0,0v-60A4,4,0,0,1,413.6,166.4Z"/><path class="cls-2" d="M409.6,230.4V448a25.6,25.6,0,0,0,51.2,0V230.4Z"/><path class="cls-3" d="M64,499.2A51.26,51.26,0,0,1,12.8,448V64A51.26,51.26,0,0,1,64,12.8H199.5L345.6,158.9V448a51.26,51.26,0,0,1-51.2,51.2Z"/><path class="cls-4" d="M256,153.6a51.26,51.26,0,0,1-51.2-51.2V18.1L340.3,153.6Z"/><path class="cls-5" d="M192,0H64A64,64,0,0,0,0,64V448a64,64,0,0,0,64,64H294.4a64,64,0,0,0,64-64V153.6L204.8,0ZM332.8,448a38.44,38.44,0,0,1-38.4,38.4H64A38.44,38.44,0,0,1,25.6,448V64A38.44,38.44,0,0,1,64,25.6H192v76.8a64,64,0,0,0,64,64h76.8ZM309.4,140.8H256a38.44,38.44,0,0,1-38.4-38.4V49ZM512,230.4a12.8,12.8,0,0,0-12.8-12.8H473.6V192a38.37,38.37,0,0,0-38.4-38.39h0a38.81,38.81,0,0,0-3.93.2A38.4,38.4,0,0,0,396.8,192V448a38.38,38.38,0,0,0,25.6,36.16v15a12.8,12.8,0,0,0,25.6,0v-15A38.39,38.39,0,0,0,473.61,448V243.2h12.8v25.6a12.8,12.8,0,0,0,25.6,0Zm-76.8-51.2A12.79,12.79,0,0,1,448,192h0v25.6H422.4V192h0a12.4,12.4,0,0,1,.56-3.63,13.14,13.14,0,0,1,3.18-5.41,12.82,12.82,0,0,1,8.73-3.71c.11,0,.2,0,.31,0Zm0,281.6h0A12.82,12.82,0,0,1,422.41,448V243.2H448V448A12.82,12.82,0,0,1,435.22,460.8ZM102.4,256a12.8,12.8,0,0,1,12.8-12.8H192a12.8,12.8,0,0,1,0,25.6H115.2A12.8,12.8,0,0,1,102.4,256ZM256,307.2A12.8,12.8,0,0,1,243.2,320h-128a12.8,12.8,0,1,1,0-25.6h128A12.8,12.8,0,0,1,256,307.2Zm-.38,51.2a12.8,12.8,0,0,1-12.8,12.8H115.2a12.8,12.8,0,0,1,0-25.6H242.82A12.8,12.8,0,0,1,255.62,358.4Z"/></svg>